<svg width="24" height="24" viewBox="0 0 24 24" fill="none" xmlns="http://www.w3.org/2000/svg">
<path d="M8 5.75C7.59 5.75 7.25 5.41 7.25 5V2C7.25 1.59 7.59 1.25 8 1.25C8.41 1.25 8.75 1.59 8.75 2V5C8.75 5.41 8.41 5.75 8 5.75Z" fill="#292D32"/>
<path d="M16 5.75C15.59 5.75 15.25 5.41 15.25 5V2C15.25 1.59 15.59 1.25 16 1.25C16.41 1.25 16.75 1.59 16.75 2V5C16.75 5.41 16.41 5.75 16 5.75Z" fill="#292D32"/>
<path d="M8.5 14.5C8.24 14.5 7.98 14.39 7.79 14.21C7.61 14.02 7.5 13.77 7.5 13.5C7.5 13.37 7.53 13.24 7.58 13.12C7.63 13 7.7 12.89 7.79 12.79C8.16 12.42 8.83 12.42 9.21 12.79C9.39 12.98 9.5 13.24 9.5 13.5C9.5 13.56 9.49 13.63 9.48 13.7C9.47 13.76 9.45 13.82 9.42 13.88C9.4 13.94 9.37 14 9.33 14.06C9.29 14.11 9.25 14.16 9.21 14.21C9.02 14.39 8.76 14.5 8.5 14.5Z" fill="#292D32"/>
<path d="M12 14.5C11.87 14.5 11.74 14.47 11.62 14.42C11.49 14.37 11.39 14.3 11.29 14.21C11.11 14.02 11 13.77 11 13.5C11 13.37 11.03 13.24 11.08 13.12C11.13 13 11.2 12.89 11.29 12.79C11.39 12.7 11.49 12.63 11.62 12.58C11.99 12.43 12.43 12.51 12.71 12.79C12.89 12.98 13 13.24 13 13.5C13 13.56 12.99 13.63 12.98 13.7C12.97 13.76 12.95 13.82 12.92 13.88C12.9 13.94 12.87 14 12.83 14.06C12.8 14.11 12.75 14.16 12.71 14.21C12.52 14.39 12.26 14.5 12 14.5Z" fill="#292D32"/>
<path d="M8.5 18C8.37 18 8.24 17.97 8.12 17.92C7.99 17.87 7.88 17.8 7.79 17.71C7.7 17.62 7.63 17.51 7.58 17.38C7.53 17.26 7.5 17.13 7.5 17C7.5 16.87 7.53 16.74 7.58 16.62C7.63 16.49 7.7 16.38 7.79 16.29C7.88 16.2 7.99 16.13 8.12 16.08C8.36 15.98 8.64 15.97 8.88 16.08C9.01 16.13 9.12 16.2 9.21 16.29C9.3 16.38 9.37 16.49 9.42 16.62C9.47 16.74 9.5 16.87 9.5 17C9.5 17.13 9.47 17.26 9.42 17.38C9.37 17.51 9.3 17.62 9.21 17.71C9.12 17.8 9.01 17.87 8.88 17.92C8.76 17.97 8.63 18 8.5 18Z" fill="#292D32"/>
<path d="M20.5 9.83997H3.5C3.09 9.83997 2.75 9.49997 2.75 9.08997C2.75 8.67997 3.09 8.33997 3.5 8.33997H20.5C20.91 8.33997 21.25 8.67997 21.25 9.08997C21.25 9.49997 20.91 9.83997 20.5 9.83997Z" fill="#292D32"/>
<path d="M15.37 22.75H8C4.35 22.75 2.25 20.65 2.25 17V8.5C2.25 4.85 4.35 2.75 8 2.75H16C19.65 2.75 21.75 4.85 21.75 8.5V16.36C21.75 16.67 21.56 16.95 21.26 17.06C20.97 17.17 20.64 17.09 20.43 16.85C19.81 16.15 18.92 15.75 17.99 15.75C16.2 15.75 14.74 17.21 14.74 19C14.74 19.59 14.9 20.17 15.21 20.67C15.38 20.97 15.6 21.22 15.84 21.43C16.08 21.63 16.17 21.96 16.06 22.26C15.97 22.55 15.69 22.75 15.37 22.75ZM8 4.25C5.14 4.25 3.75 5.64 3.75 8.5V17C3.75 19.86 5.14 21.25 8 21.25H13.82C13.45 20.57 13.25 19.8 13.25 19C13.25 16.38 15.38 14.25 18 14.25C18.79 14.25 19.57 14.45 20.25 14.82V8.5C20.25 5.64 18.86 4.25 16 4.25H8Z" fill="#292D32"/>
<path d="M17.75 23.5C16.58 23.5 15.47 23.08 14.62 22.31C14.26 22.01 13.94 21.63 13.68 21.19C13.24 20.47 13 19.62 13 18.75C13 16.13 15.13 14 17.75 14C19.11 14 20.41 14.59 21.31 15.61C22.08 16.49 22.5 17.6 22.5 18.75C22.5 19.62 22.26 20.47 21.81 21.2C20.97 22.62 19.41 23.5 17.75 23.5ZM17.75 15.5C15.96 15.5 14.5 16.96 14.5 18.75C14.5 19.34 14.66 19.92 14.97 20.42C15.14 20.72 15.36 20.97 15.6 21.18C16.2 21.72 16.95 22 17.75 22C18.9 22 19.94 21.41 20.53 20.43C20.84 19.92 21 19.35 21 18.75C21 17.97 20.71 17.21 20.19 16.6C19.57 15.9 18.68 15.5 17.75 15.5Z" fill="#292D32"/>
<path d="M17.4165 19.5489L17.4166 19.5489L18.5261 20.211C18.5925 20.2544 18.6632 20.2696 18.7288 20.2696C18.8618 20.2696 18.9914 20.2006 19.068 20.0781L19.068 20.0781L19.07 20.0749C19.1783 19.8891 19.1234 19.6467 18.9323 19.5348L17.8209 18.8715L17.8209 18.8715L17.8196 18.8708C17.7904 18.8538 17.7493 18.8108 17.7144 18.7494C17.6795 18.6881 17.663 18.63 17.663 18.5951V17.1245C17.663 16.9084 17.4851 16.7305 17.269 16.7305C17.0529 16.7305 16.875 16.9084 16.875 17.1245V18.5951C16.875 18.9582 17.1025 19.3613 17.4165 19.5489Z" fill="#292D32" stroke="#292D32" stroke-width="0.25"/>
</svg>
